<svg width="13" height="12" viewBox="0 0 13 12" fill="none" xmlns="http://www.w3.org/2000/svg">
<path d="M11.5001 6.83341H7.33341V11.0001C7.33341 11.4584 6.95841 11.8334 6.50008 11.8334C6.04175 11.8334 5.66675 11.4584 5.66675 11.0001V6.83341H1.50008C1.04175 6.83341 0.666748 6.45841 0.666748 6.00008C0.666748 5.54175 1.04175 5.16675 1.50008 5.16675H5.66675V1.00008C5.66675 0.541748 6.04175 0.166748 6.50008 0.166748C6.95841 0.166748 7.33341 0.541748 7.33341 1.00008V5.16675H11.5001C11.9584 5.16675 12.3334 5.54175 12.3334 6.00008C12.3334 6.45841 11.9584 6.83341 11.5001 6.83341Z" fill="#667080"/>
</svg>
