<svg width="88" height="88" viewBox="0 0 88 88" fill="none" xmlns="http://www.w3.org/2000/svg">
<path d="M0 14.6667C0 6.56649 6.56649 0 14.6667 0H73.3333C81.4335 0 88 6.56649 88 14.6667V73.3333C88 81.4335 81.4335 88 73.3333 88H14.6667C6.56649 88 0 81.4335 0 73.3333V14.6667Z" fill="#1D2433"/>
<path d="M18.3369 18.3349C18.3369 16.3098 19.9785 14.6682 22.0036 14.6682H29.3369C31.362 14.6682 33.0036 16.3098 33.0036 18.3349V25.6682C33.0036 27.6933 31.362 29.3349 29.3369 29.3349H22.0036C19.9785 29.3349 18.3369 27.6933 18.3369 25.6682V18.3349Z" fill="white"/>
<path d="M40.333 18.3349C40.333 16.3098 41.9746 14.6682 43.9997 14.6682H65.9997C68.0247 14.6682 69.6663 16.3098 69.6663 18.3349V25.6682C69.6663 27.6933 68.0247 29.3349 65.9997 29.3349H43.9997C41.9746 29.3349 40.333 27.6933 40.333 25.6682V18.3349Z" fill="white"/>
<path d="M18.3369 62.3341C18.3369 60.3091 19.9785 58.6675 22.0036 58.6675H29.3369C31.362 58.6675 33.0036 60.3091 33.0036 62.3341V69.6675C33.0036 71.6925 31.362 73.3341 29.3369 73.3341H22.0036C19.9785 73.3341 18.3369 71.6925 18.3369 69.6675V62.3341Z" fill="white"/>
<path d="M40.333 62.3341C40.333 60.3091 41.9746 58.6675 43.9997 58.6675H65.9997C68.0247 58.6675 69.6663 60.3091 69.6663 62.3341V69.6675C69.6663 71.6925 68.0247 73.3341 65.9997 73.3341H43.9997C41.9746 73.3341 40.333 71.6925 40.333 69.6675V62.3341Z" fill="white"/>
<path d="M18.3369 40.3332C18.3369 38.3081 19.9785 36.6665 22.0036 36.6665H29.3369C31.362 36.6665 33.0036 38.3081 33.0036 40.3332V47.6665C33.0036 49.6915 31.362 51.3332 29.3369 51.3332H22.0036C19.9785 51.3332 18.3369 49.6915 18.3369 47.6665V40.3332Z" fill="white"/>
<path d="M40.333 40.3332C40.333 38.3081 41.9746 36.6665 43.9997 36.6665H51.333C53.3581 36.6665 54.9997 38.3081 54.9997 40.3332V47.6665C54.9997 49.6915 53.3581 51.3332 51.333 51.3332H43.9997C41.9746 51.3332 40.333 49.6915 40.333 47.6665V40.3332Z" fill="white"/>
</svg>
