<svg width="176" height="30" viewBox="0 0 176 30" fill="none" xmlns="http://www.w3.org/2000/svg">
    <path d="M41.6729 23.7502V5.56836H54.5451V9.54563H46.5217V12.6706H53.8823V16.6479H46.5217V19.7729H54.5102V23.7502H41.6729Z" fill="#1D2433"/>
    <path d="M60.7522 23.9632C59.8976 23.9632 59.1418 23.8212 58.4848 23.5371C57.8336 23.2471 57.322 22.8091 56.9499 22.2232C56.5778 21.6373 56.3917 20.8915 56.3917 19.986C56.3917 19.2402 56.5167 18.604 56.7667 18.0772C57.0167 17.5446 57.3656 17.1096 57.8133 16.7722C58.2609 16.4348 58.7813 16.1774 59.3743 15.9998C59.9732 15.8223 60.6185 15.7069 61.3104 15.6536C62.0604 15.5944 62.6621 15.5234 63.1156 15.4405C63.5749 15.3517 63.9063 15.2304 64.1098 15.0765C64.3133 14.9167 64.4151 14.7066 64.4151 14.4462V14.4107C64.4151 14.0556 64.2813 13.7833 64.0139 13.5939C63.7465 13.4045 63.4034 13.3098 62.9848 13.3098C62.5255 13.3098 62.1505 13.4134 61.8598 13.6206C61.5749 13.8218 61.4034 14.1325 61.3453 14.5527H56.915C56.9731 13.7241 57.2319 12.9606 57.6912 12.2623C58.1563 11.5579 58.8336 10.9957 59.7232 10.5755C60.6127 10.1493 61.7232 9.93626 63.0546 9.93626C64.0139 9.93626 64.8744 10.0517 65.636 10.2825C66.3976 10.5074 67.0459 10.824 67.5808 11.2324C68.1157 11.6349 68.5227 12.1084 68.8017 12.6529C69.0866 13.1915 69.2291 13.7774 69.2291 14.4107V23.7502H64.729V21.8326H64.6244C64.3569 22.3416 64.0313 22.7529 63.6476 23.0666C63.2697 23.3803 62.8366 23.6081 62.3482 23.7502C61.8656 23.8922 61.3336 23.9632 60.7522 23.9632ZM62.322 20.8738C62.6883 20.8738 63.0313 20.7968 63.3511 20.6429C63.6767 20.4891 63.9412 20.2671 64.1447 19.9771C64.3482 19.6871 64.4499 19.3349 64.4499 18.9206V17.7843C64.322 17.8375 64.1854 17.8878 64.0401 17.9352C63.9005 17.9825 63.7494 18.0269 63.5866 18.0684C63.4296 18.1098 63.261 18.1483 63.0807 18.1838C62.9063 18.2193 62.7232 18.2518 62.5313 18.2814C62.1592 18.3406 61.854 18.4383 61.6156 18.5744C61.3831 18.7046 61.2086 18.8674 61.0924 19.0627C60.9819 19.2521 60.9267 19.4651 60.9267 19.7019C60.9267 20.0807 61.0575 20.3707 61.3191 20.5719C61.5807 20.7731 61.915 20.8738 62.322 20.8738Z" fill="#1D2433"/>
    <path d="M83.7735 14.5527H79.3433C79.32 14.2746 79.2241 14.0349 79.0555 13.8336C78.8869 13.6324 78.6688 13.4785 78.4014 13.372C78.1398 13.2595 77.849 13.2033 77.5293 13.2033C77.1165 13.2033 76.7618 13.2802 76.4653 13.4341C76.1688 13.588 76.0235 13.807 76.0293 14.0911C76.0235 14.2923 76.1078 14.4788 76.2822 14.6504C76.4624 14.822 76.8083 14.9552 77.32 15.0499L80.0409 15.5471C81.413 15.8016 82.4334 16.2306 83.102 16.8343C83.7764 17.4321 84.1165 18.2341 84.1224 19.2402C84.1165 20.2109 83.8317 21.0543 83.2677 21.7704C82.7096 22.4806 81.945 23.0311 80.9741 23.4217C80.009 23.8064 78.9072 23.9988 77.6688 23.9988C75.6223 23.9988 74.0205 23.5726 72.8635 22.7203C71.7124 21.8681 71.0699 20.7436 70.9362 19.3468H75.7153C75.7793 19.7788 75.9886 20.1132 76.3432 20.35C76.7037 20.5808 77.1572 20.6962 77.7037 20.6962C78.1456 20.6962 78.5089 20.6193 78.7938 20.4654C79.0845 20.3115 79.2328 20.0925 79.2386 19.8084C79.2328 19.548 79.1049 19.3409 78.8549 19.187C78.6107 19.0331 78.227 18.9088 77.7037 18.8141L75.3316 18.388C73.9653 18.1453 72.942 17.6837 72.2618 17.003C71.5816 16.3224 71.2443 15.4464 71.2502 14.3752C71.2443 13.4282 71.4885 12.6262 71.9827 11.9693C72.4827 11.3064 73.1949 10.8033 74.1194 10.4601C75.0496 10.1109 76.1514 9.93626 77.4246 9.93626C79.3607 9.93626 80.8869 10.3446 82.0032 11.1614C83.1253 11.9782 83.7154 13.1086 83.7735 14.5527Z" fill="#1D2433"/>
    <path d="M88.8971 28.8638C88.3448 28.8638 87.8186 28.8194 87.3186 28.7307C86.8186 28.6478 86.3797 28.5324 86.0017 28.3844L87.0483 24.9043C87.4436 25.0463 87.8041 25.1381 88.1297 25.1795C88.4611 25.2209 88.743 25.1973 88.9756 25.1085C89.214 25.0197 89.3855 24.851 89.4901 24.6025L89.5948 24.3539L84.8854 10.1138H89.9087L92.0716 19.5598H92.2111L94.4088 10.1138H99.467L94.5832 24.8865C94.339 25.6382 93.9844 26.3129 93.5192 26.9107C93.0599 27.5144 92.4553 27.9908 91.7053 28.34C90.9553 28.6892 90.0192 28.8638 88.8971 28.8638Z" fill="#1D2433"/>
    <path d="M100.766 5.56836H106.801L110.953 15.8667H111.162L115.313 5.56836H121.348V23.7502H116.604V13.2388H116.464L112.487 23.6081H109.627L105.65 13.1678H105.511V23.7502H100.766V5.56836Z" fill="#1D2433"/>
    <path d="M130.134 23.9988C128.704 23.9988 127.472 23.7206 126.437 23.1642C125.408 22.602 124.614 21.7971 124.056 20.7495C123.504 19.696 123.227 18.4353 123.227 16.9675C123.227 15.5589 123.506 14.3278 124.065 13.2743C124.623 12.2208 125.411 11.4011 126.428 10.8152C127.445 10.2292 128.646 9.93626 130.03 9.93626C131.041 9.93626 131.957 10.0961 132.777 10.4157C133.597 10.7353 134.297 11.1999 134.879 11.8095C135.46 12.4132 135.908 13.1471 136.222 14.0112C136.536 14.8753 136.693 15.8489 136.693 16.932V18.0684H124.727V15.3695H132.262C132.257 14.9789 132.158 14.6356 131.966 14.3397C131.78 14.0378 131.527 13.804 131.207 13.6383C130.893 13.4667 130.536 13.3809 130.134 13.3809C129.745 13.3809 129.387 13.4667 129.062 13.6383C128.736 13.804 128.475 14.0349 128.277 14.3308C128.085 14.6267 127.983 14.973 127.972 15.3695V18.2814C127.972 18.7194 128.062 19.11 128.242 19.4533C128.422 19.7966 128.681 20.0659 129.018 20.2612C129.355 20.4565 129.762 20.5542 130.239 20.5542C130.57 20.5542 130.873 20.5068 131.146 20.4121C131.425 20.3174 131.663 20.1813 131.861 20.0037C132.059 19.8203 132.204 19.6013 132.297 19.3468H136.693C136.541 20.2937 136.184 21.1164 135.62 21.8148C135.056 22.5073 134.309 23.0459 133.379 23.4306C132.454 23.8094 131.373 23.9988 130.134 23.9988Z" fill="#1D2433"/>
    <path d="M145.076 23.9988C143.645 23.9988 142.413 23.7206 141.378 23.1642C140.349 22.602 139.555 21.7971 138.997 20.7495C138.445 19.696 138.169 18.4353 138.169 16.9675C138.169 15.5589 138.448 14.3278 139.006 13.2743C139.564 12.2208 140.352 11.4011 141.369 10.8152C142.387 10.2292 143.587 9.93626 144.971 9.93626C145.983 9.93626 146.898 10.0961 147.718 10.4157C148.538 10.7353 149.239 11.1999 149.82 11.8095C150.401 12.4132 150.849 13.1471 151.163 14.0112C151.477 14.8753 151.634 15.8489 151.634 16.932V18.0684H139.669V15.3695H147.204C147.198 14.9789 147.099 14.6356 146.907 14.3397C146.721 14.0378 146.468 13.804 146.148 13.6383C145.834 13.4667 145.477 13.3809 145.076 13.3809C144.686 13.3809 144.329 13.4667 144.003 13.6383C143.677 13.804 143.416 14.0349 143.218 14.3308C143.026 14.6267 142.924 14.973 142.913 15.3695V18.2814C142.913 18.7194 143.003 19.11 143.183 19.4533C143.363 19.7966 143.622 20.0659 143.959 20.2612C144.297 20.4565 144.704 20.5542 145.18 20.5542C145.512 20.5542 145.814 20.5068 146.087 20.4121C146.366 20.3174 146.605 20.1813 146.802 20.0037C147 19.8203 147.145 19.6013 147.238 19.3468H151.634C151.483 20.2937 151.125 21.1164 150.561 21.8148C149.997 22.5073 149.25 23.0459 148.32 23.4306C147.395 23.8094 146.314 23.9988 145.076 23.9988Z" fill="#1D2433"/>
    <path d="M161.587 10.1138V13.665H152.761V10.1138H161.587ZM154.47 6.84677H159.284V19.3645C159.284 19.5539 159.316 19.7137 159.38 19.8439C159.444 19.9682 159.543 20.0629 159.677 20.128C159.811 20.1872 159.982 20.2168 160.191 20.2168C160.337 20.2168 160.505 20.199 160.697 20.1635C160.895 20.128 161.04 20.0984 161.133 20.0748L161.831 23.5194C161.616 23.5845 161.308 23.6644 160.906 23.7591C160.511 23.8538 160.04 23.9159 159.494 23.9455C158.389 24.0047 157.462 23.8893 156.712 23.5993C155.962 23.3033 155.398 22.8387 155.02 22.2054C154.642 21.5721 154.459 20.7791 154.47 19.8262V6.84677Z" fill="#1D2433"/>
    <path d="M175.652 14.5527H171.221C171.198 14.2746 171.102 14.0349 170.933 13.8336C170.765 13.6324 170.547 13.4785 170.279 13.372C170.018 13.2595 169.727 13.2033 169.407 13.2033C168.994 13.2033 168.64 13.2802 168.343 13.4341C168.047 13.588 167.901 13.807 167.907 14.0911C167.901 14.2923 167.986 14.4788 168.16 14.6504C168.34 14.822 168.686 14.9552 169.198 15.0499L171.919 15.5471C173.291 15.8016 174.311 16.2306 174.98 16.8343C175.654 17.4321 175.995 18.2341 176 19.2402C175.995 20.2109 175.71 21.0543 175.146 21.7704C174.588 22.4806 173.823 23.0311 172.852 23.4217C171.887 23.8064 170.785 23.9988 169.547 23.9988C167.5 23.9988 165.899 23.5726 164.742 22.7203C163.59 21.8681 162.948 20.7436 162.814 19.3468H167.593C167.657 19.7788 167.867 20.1132 168.221 20.35C168.582 20.5808 169.035 20.6962 169.582 20.6962C170.024 20.6962 170.387 20.6193 170.672 20.4654C170.963 20.3115 171.111 20.0925 171.117 19.8084C171.111 19.548 170.983 19.3409 170.733 19.187C170.489 19.0331 170.105 18.9088 169.582 18.8141L167.21 18.388C165.843 18.1453 164.82 17.6837 164.14 17.003C163.46 16.3224 163.122 15.4464 163.128 14.3752C163.122 13.4282 163.367 12.6262 163.861 11.9693C164.361 11.3064 165.073 10.8033 165.997 10.4601C166.928 10.1109 168.029 9.93626 169.303 9.93626C171.239 9.93626 172.765 10.3446 173.881 11.1614C175.003 11.9782 175.593 13.1086 175.652 14.5527Z" fill="#1D2433"/>
    <path d="M0 5C0 2.23858 2.19903 0 4.91167 0H24.5584C27.271 0 29.47 2.23858 29.47 5V25C29.47 27.7614 27.271 30 24.5584 30H4.91167C2.19903 30 0 27.7614 0 25V5Z" fill="#1D2433"/>
    <path d="M6.13965 6.25049C6.13965 5.56013 6.68941 5.00049 7.36757 5.00049H9.8234C10.5016 5.00049 11.0513 5.56013 11.0513 6.25049V8.75049C11.0513 9.44085 10.5016 10.0005 9.8234 10.0005H7.36757C6.68941 10.0005 6.13965 9.44085 6.13965 8.75049V6.25049Z" fill="white"/>
    <path d="M13.5068 6.25049C13.5068 5.56013 14.0566 5.00049 14.7348 5.00049H22.1023C22.7804 5.00049 23.3302 5.56013 23.3302 6.25049V8.75049C23.3302 9.44084 22.7804 10.0005 22.1023 10.0005H14.7348C14.0566 10.0005 13.5068 9.44084 13.5068 8.75049V6.25049Z" fill="white"/>
    <path d="M6.13965 21.2505C6.13965 20.5601 6.68941 20.0005 7.36757 20.0005H9.8234C10.5016 20.0005 11.0513 20.5601 11.0513 21.2505V23.7505C11.0513 24.4408 10.5016 25.0005 9.8234 25.0005H7.36757C6.68941 25.0005 6.13965 24.4408 6.13965 23.7505V21.2505Z" fill="white"/>
    <path d="M13.5068 21.2505C13.5068 20.5601 14.0566 20.0005 14.7348 20.0005H22.1023C22.7804 20.0005 23.3302 20.5601 23.3302 21.2505V23.7505C23.3302 24.4408 22.7804 25.0005 22.1023 25.0005H14.7348C14.0566 25.0005 13.5068 24.4408 13.5068 23.7505V21.2505Z" fill="white"/>
    <path d="M6.13965 13.75C6.13965 13.0596 6.68941 12.5 7.36757 12.5H9.8234C10.5016 12.5 11.0513 13.0596 11.0513 13.75V16.25C11.0513 16.9404 10.5016 17.5 9.8234 17.5H7.36757C6.68941 17.5 6.13965 16.9404 6.13965 16.25V13.75Z" fill="white"/>
    <path d="M13.5068 13.75C13.5068 13.0596 14.0566 12.5 14.7348 12.5H17.1906C17.8688 12.5 18.4185 13.0596 18.4185 13.75V16.25C18.4185 16.9404 17.8688 17.5 17.1906 17.5H14.7348C14.0566 17.5 13.5068 16.9404 13.5068 16.25V13.75Z" fill="white"/>
</svg>
